<?xml version="1.0" encoding="UTF-8"?>
<svg width="188px" height="176px" viewBox="0 0 188 176" version="1.1" xmlns="http://www.w3.org/2000/svg" xmlns:xlink="http://www.w3.org/1999/xlink">
    <!-- Generator: Sketch 50 (54983) - http://www.bohemiancoding.com/sketch -->
    <title>Snow/Cold</title>
    <desc>Created with Sketch.</desc>
    <defs>
        <polygon id="path-1" points="8.05356191e-05 0.318 125.254222 0.318 125.254222 125.574908 8.05356191e-05 125.574908"></polygon>
        <polygon id="path-3" points="-0.000119091316 0.317952424 79.68 0.317952424 79.68 79.9999672 -0.000119091316 79.9999672"></polygon>
    </defs>
    <g id="Snow/Cold" stroke="none" stroke-width="1" fill="none" fill-rule="evenodd">
        <g id="Group-3" transform="translate(0.000000, -0.318000)">
            <mask id="mask-2" fill="white">
                <use xlink:href="#path-1"></use>
            </mask>
            <g id="Clip-2"></g>
            <path d="M124.8953,40.4156 L124.7403,39.9906 C123.6313,36.9496 120.2723,35.1386 117.2323,36.2466 L85.0973,47.9656 L100.9403,32.1226 C102.8013,30.2616 102.5933,27.1626 100.7323,25.3016 L100.4723,25.0416 C98.6103,23.1796 95.7723,23.2326 93.9113,25.0936 L81.7033,37.3016 L94.0313,10.8226 C95.3973,7.8886 93.8523,4.3966 90.9183,3.0306 L90.5073,2.8396 C87.5733,1.4736 84.4943,2.7296 83.1283,5.6646 L68.7853,36.8506 L68.7853,9.3426 C68.7853,6.4596 65.9343,3.2956 63.0513,3.2956 L62.6483,3.2956 C59.7663,3.2956 57.7853,6.4596 57.7853,9.3426 L57.7853,30.1946 L48.1273,4.0066 C47.0183,0.9656 43.4023,-0.4104 40.3623,0.6986 L39.9093,0.8536 C36.8693,1.9626 35.4413,5.1526 36.5503,8.1936 L48.9633,42.2536 L31.5523,24.8456 C29.6913,22.9846 26.4613,23.0376 24.6003,24.8986 L24.3383,25.1586 C22.4773,27.0206 22.6593,30.0136 24.5213,31.8746 L36.0333,43.3876 L10.8133,31.6456 C7.8793,30.2796 4.1713,31.7006 2.8063,34.6346 L2.6143,35.0446 C1.2483,37.9796 2.7203,41.1786 5.6543,42.5446 L35.5813,56.2956 L9.1323,56.2956 C6.2503,56.2956 3.7853,59.9766 3.7853,62.8586 L3.7853,63.2616 C3.7853,66.1446 6.2503,67.2956 9.1323,67.2956 L31.4663,67.2956 L3.8993,77.4616 C0.8583,78.5706 -0.7587,82.2536 0.3503,85.2936 L0.5053,85.7476 C1.6143,88.7876 5.0453,90.1516 8.0863,89.0436 L42.4953,76.5026 L24.5333,94.4686 C22.6713,96.3296 22.4643,99.3246 24.3253,101.1866 L24.5853,101.4476 C26.4473,103.3086 29.7003,103.3616 31.5623,101.5006 L44.2323,88.8306 L32.0363,115.0266 C30.6703,117.9606 31.6913,121.5056 34.6253,122.8716 L35.0353,123.0626 C37.9693,124.4286 41.8583,123.1186 43.2243,120.1846 L57.7853,89.1426 L57.7853,116.7786 C57.7853,119.6606 59.7663,122.2956 62.6483,122.2956 L63.0513,122.2956 C65.9343,122.2956 68.7853,119.6606 68.7853,116.7786 L68.7853,95.6596 L78.0413,121.5266 C79.1503,124.5676 82.2903,126.3526 85.3313,125.2436 L85.7123,125.0886 C88.7533,123.9796 90.4773,120.3806 89.3693,117.3396 L77.5123,84.8556 L93.9043,101.2536 C95.7653,103.1146 98.6263,103.1666 100.4873,101.3056 L100.7463,101.0456 C102.6073,99.1836 102.7893,96.0856 100.9283,94.2246 L87.5633,80.8596 L115.0173,93.6406 C117.9513,95.0066 121.2803,93.8616 122.6463,90.9276 L122.8373,90.5176 C124.2033,87.5836 123.1093,83.8136 120.1753,82.4476 L87.8733,67.2956 L116.5683,67.2956 C119.4503,67.2956 121.7853,66.1446 121.7853,63.2616 L121.7853,62.8586 C121.7853,59.9766 119.4503,56.2956 116.5683,56.2956 L96.9323,56.2956 L121.4193,47.5476 C124.4593,46.4386 126.0043,43.4566 124.8953,40.4156" id="Fill-1" fill="#FFFFFF" mask="url(#mask-2)"></path>
        </g>
        <g id="Group-6" transform="translate(108.000000, 95.682000)">
            <mask id="mask-4" fill="white">
                <use xlink:href="#path-3"></use>
            </mask>
            <g id="Clip-5"></g>
            <path d="M79.4519,25.826 L79.3529,25.555 C78.6479,23.621 76.5109,22.469 74.5769,23.174 L54.1349,30.629 L64.2129,20.551 C65.3969,19.366 65.2649,17.395 64.0809,16.211 L63.9149,16.046 C62.7309,14.862 60.9259,14.895 59.7419,16.079 L51.9759,23.845 L59.8179,7 C60.6869,5.134 59.7039,2.913 57.8369,2.044 L57.5759,1.922 C55.7099,1.053 53.7649,1.852 52.8959,3.719 L43.7849,23.558 L43.7849,6.059 C43.7849,4.225 41.9439,2.295 40.1099,2.295 L39.8539,2.295 C38.0199,2.295 36.7849,4.225 36.7849,6.059 L36.7849,19.324 L30.6289,2.665 C29.9229,0.73 27.6169,-0.145 25.6829,0.56 L25.3919,0.659 C23.4569,1.364 22.5479,3.394 23.2529,5.328 L31.1489,26.995 L20.0729,15.921 C18.8889,14.737 16.8329,14.771 15.6489,15.955 L15.4829,16.12 C14.2989,17.305 14.4149,19.209 15.5989,20.393 L22.9229,27.717 L6.8789,20.247 C5.0119,19.378 2.6539,20.282 1.7849,22.148 L1.6629,22.41 C0.7939,24.276 1.7309,26.495 3.5969,27.364 L22.6349,36.295 L5.8089,36.295 C3.9759,36.295 2.7849,38.27 2.7849,40.103 L2.7849,40.36 C2.7849,42.193 3.9759,43.295 5.8089,43.295 L20.0179,43.295 L2.4799,49.578 C0.5459,50.283 -0.4831,52.533 0.2229,54.468 L0.3219,54.71 C1.0269,56.644 3.2099,57.489 5.1439,56.784 L27.0329,48.794 L15.6069,60.217 C14.4229,61.401 14.2899,63.304 15.4749,64.488 L15.6399,64.653 C16.8239,65.837 18.8939,65.87 20.0779,64.686 L28.1379,56.626 L20.3799,73.29 C19.5109,75.156 20.1599,77.411 22.0269,78.28 L22.2879,78.402 C24.1539,79.271 26.6409,78.437 27.5099,76.571 L36.7849,56.824 L36.7849,74.404 C36.7849,76.238 38.0199,78.295 39.8539,78.295 L40.1099,78.295 C41.9439,78.295 43.7849,76.238 43.7849,74.404 L43.7849,60.97 L49.6599,77.425 C50.3649,79.359 52.3559,80.495 54.2899,79.789 L54.5289,79.691 C56.4629,78.985 57.5589,76.695 56.8539,74.761 L49.3099,54.096 L59.7379,64.528 C60.9219,65.712 62.7409,65.745 63.9249,64.561 L64.0899,64.396 C65.2739,63.211 65.3899,61.24 64.2049,60.056 L55.7029,51.554 L73.1679,59.685 C75.0339,60.554 77.1519,59.826 78.0209,57.959 L78.1429,57.698 C79.0119,55.832 78.3159,53.619 76.4489,52.75 L55.8999,43.295 L74.1549,43.295 C75.9879,43.295 77.7849,42.193 77.7849,40.36 L77.7849,40.103 C77.7849,38.27 75.9879,36.295 74.1549,36.295 L61.6629,36.295 L77.2409,30.547 C79.1749,29.841 80.1569,27.76 79.4519,25.826" id="Fill-4" fill="#FFFFFF" mask="url(#mask-4)"></path>
        </g>
        <path d="M175.3772,52.1735 L175.3142,52.0015 C174.8672,50.7755 173.5122,50.0445 172.2862,50.4925 L159.3242,55.2185 L165.7152,48.8285 C166.4652,48.0775 166.3822,46.8275 165.6312,46.0775 L165.5262,45.9725 C164.7752,45.2215 163.6302,45.2425 162.8792,45.9935 L157.9552,50.9175 L162.9282,40.2375 C163.4792,39.0535 162.8562,37.6455 161.6722,37.0945 L161.5072,37.0175 C160.3232,36.4665 159.1012,36.9725 158.5502,38.1565 L152.7852,50.7355 L152.7852,39.6395 C152.7852,38.4775 151.5952,36.9775 150.4322,36.9775 L150.2692,36.9775 C149.1072,36.9775 148.7852,38.4775 148.7852,39.6395 L148.7852,48.0505 L144.6512,37.4875 C144.2042,36.2615 142.6262,35.7065 141.3992,36.1535 L141.1572,36.2165 C139.9312,36.6635 139.3252,37.9505 139.7722,39.1765 L144.7642,52.9145 L137.7342,45.8935 C136.9832,45.1425 135.6772,45.1635 134.9262,45.9145 L134.8192,46.0195 C134.0682,46.7705 134.1412,47.9775 134.8912,48.7285 L139.5352,53.3725 L129.3622,48.6365 C128.1782,48.0855 126.6832,48.6585 126.1322,49.8415 L126.0552,50.0075 C125.5042,51.1905 126.0972,52.6805 127.2812,53.2315 L139.3522,58.9775 L128.6832,58.9775 C127.5212,58.9775 126.7852,60.0635 126.7852,61.2265 L126.7852,61.3885 C126.7852,62.5515 127.5212,62.9775 128.6832,62.9775 L137.6922,62.9775 L126.5722,67.0975 C125.3462,67.5445 124.6942,69.0395 125.1412,70.2655 L125.2042,70.4535 C125.6512,71.6805 127.0352,72.2325 128.2612,71.7855 L142.1412,66.7285 L134.8952,73.9755 C134.1452,74.7265 134.0612,75.9345 134.8122,76.6855 L134.9172,76.7905 C135.6672,77.5415 136.9802,77.5635 137.7312,76.8125 L142.8412,71.7015 L137.9222,82.2685 C137.3712,83.4515 137.7832,84.8815 138.9662,85.4325 L139.1322,85.5095 C140.3152,86.0605 142.1222,85.5325 142.6732,84.3485 L148.7852,71.8275 L148.7852,82.9745 C148.7852,84.1375 149.1072,84.9775 150.2692,84.9775 L150.4322,84.9775 C151.5952,84.9775 152.7852,84.1375 152.7852,82.9745 L152.7852,74.4565 L156.4982,84.8905 C156.9462,86.1165 158.2022,86.8365 159.4292,86.3895 L159.5772,86.3265 C160.8042,85.8795 161.4972,84.4275 161.0502,83.2015 L156.2662,70.0985 L162.8772,76.7125 C163.6282,77.4635 164.7812,77.4845 165.5322,76.7335 L165.6372,76.6285 C166.3872,75.8785 166.4612,74.6285 165.7102,73.8775 L160.3192,68.4865 L171.3932,73.6425 C172.5762,74.1935 173.9192,73.7315 174.4702,72.5475 L174.5472,72.3825 C175.0982,71.1985 174.6572,69.6595 173.4732,69.1085 L160.4442,62.9775 L172.0182,62.9775 C173.1812,62.9775 174.7852,62.5515 174.7852,61.3885 L174.7852,61.2265 C174.7852,60.0635 173.1812,58.9775 172.0182,58.9775 L164.0982,58.9775 L173.9752,55.2495 C175.2012,54.8025 175.8242,53.3995 175.3772,52.1735" id="Fill-7" fill="#FFFFFF"></path>
    </g>
</svg>