<?xml version="1.0" encoding="UTF-8"?>
<svg width="160px" height="160px" viewBox="0 0 160 160" version="1.1" xmlns="http://www.w3.org/2000/svg" xmlns:xlink="http://www.w3.org/1999/xlink">
    <!-- Generator: Sketch 50 (54983) - http://www.bohemiancoding.com/sketch -->
    <title>M Logo</title>
    <desc>Created with Sketch.</desc>
    <defs>
        <rect id="path-1" x="17" y="17" width="81" height="81"></rect>
        <filter x="-12.3%" y="-9.9%" width="124.7%" height="124.7%" filterUnits="objectBoundingBox" id="filter-2">
            <feOffset dx="0" dy="2" in="SourceAlpha" result="shadowOffsetOuter1"></feOffset>
            <feGaussianBlur stdDeviation="3" in="shadowOffsetOuter1" result="shadowBlurOuter1"></feGaussianBlur>
            <feComposite in="shadowBlurOuter1" in2="SourceAlpha" operator="out" result="shadowBlurOuter1"></feComposite>
            <feColorMatrix values="0 0 0 0 0   0 0 0 0 0   0 0 0 0 0  0 0 0 0.5 0" type="matrix" in="shadowBlurOuter1"></feColorMatrix>
        </filter>
    </defs>
    <g id="M-Logo" stroke="none" stroke-width="1" fill="none" fill-rule="evenodd">
        <g transform="translate(18.000000, 16.000000)">
            <g id="Rectangle-4" transform="translate(57.500000, 57.500000) rotate(45.000000) translate(-57.500000, -57.500000) ">
                <use fill="black" fill-opacity="1" filter="url(#filter-2)" xlink:href="#path-1"></use>
                <rect stroke="#FFFFFF" stroke-width="5" stroke-linejoin="square" fill="#000000" fill-rule="evenodd" x="19.5" y="19.5" width="76" height="76"></rect>
            </g>
            <polygon id="M" fill="#FFFFFF" points="71.6855862 31.4937435 89.4509144 31.4937435 89.4509144 37.8919843 83.2568728 37.8919843 83.2568728 76.3835288 89.4509144 76.3835288 89.4509144 82.7817697 70.1540924 82.7817697 70.1540924 76.3835288 76.2120012 76.3835288 76.2120012 37.8919843 58.5828058 83.3263008 57.0513119 83.3263008 39.5582493 37.8919843 39.5582493 76.3835288 45.2077598 76.3835288 45.2077598 82.7817697 27 82.7817697 27 76.3835288 33.2280748 76.3835288 33.2280748 37.8919843 27 37.8919843 27 31.4937435 44.5951623 31.4937435 58.106341 66.6160016"></polygon>
        </g>
    </g>
</svg>