<?xml version="1.0" encoding="UTF-8"?>
<svg width="195px" height="102px" viewBox="0 0 195 102" version="1.1" xmlns="http://www.w3.org/2000/svg" xmlns:xlink="http://www.w3.org/1999/xlink">
    <!-- Generator: Sketch 50 (54983) - http://www.bohemiancoding.com/sketch -->
    <title>Partly Cloudy</title>
    <desc>Created with Sketch.</desc>
    <defs>
        <polygon id="path-1" points="0 0.727316057 102.26055 0.727316057 102.26055 102.999955 0 102.999955"></polygon>
        <polygon id="path-3" points="0.4022 0.8976 137.045 0.8976 137.045 59.8636 0.4022 59.8636"></polygon>
    </defs>
    <g id="Partly-Cloudy" stroke="none" stroke-width="1" fill="none" fill-rule="evenodd">
        <g id="Group-3" transform="translate(0.000000, -0.727000)">
            <mask id="mask-2" fill="white">
                <use xlink:href="#path-1"></use>
            </mask>
            <g id="Clip-2"></g>
            <path d="M88.8498,55.5462 C88.0068,52.5932 83.3248,45.3582 82.4598,44.2532 C82.4588,44.2522 82.4598,44.2502 82.4608,44.2492 L100.6158,26.0292 C102.8088,23.8362 102.8088,20.2152 100.6158,18.0222 C98.4228,15.8292 94.8338,15.8132 92.6408,18.0062 L74.5468,36.1532 C74.5458,36.1552 74.5438,36.1552 74.5428,36.1542 C71.5848,34.1952 68.0848,32.7692 64.7038,32.0382 C64.7018,32.0382 64.7008,32.0392 64.7008,32.0372 C64.7008,31.9622 64.7008,13.7712 64.7008,6.6002 C64.7008,3.8972 62.9068,1.4072 60.2618,0.8532 C56.6428,0.0942 53.4228,2.8722 53.4228,6.3662 L53.4228,32.0352 C53.4228,32.0362 53.4218,32.0382 53.4198,32.0382 C50.0388,32.7692 46.4158,34.1872 43.4578,36.1462 C43.4568,36.1472 43.4548,36.1462 43.4538,36.1452 L25.2678,17.9902 C23.0748,15.7972 19.4708,15.7972 17.2778,17.9902 C15.0848,20.1832 15.0778,23.7722 17.2708,25.9642 L35.4218,44.2492 C35.4228,44.2512 35.4238,44.2522 35.4228,44.2542 C33.4638,47.2122 32.0418,50.9032 31.3108,54.2842 C31.3108,54.2862 31.3098,54.2872 31.3078,54.2872 L5.8758,54.2872 C3.1738,54.2872 0.6798,56.0812 0.1258,58.7262 C-0.6332,62.3452 2.1448,65.5642 5.6388,65.5642 L31.3078,65.5642 C31.3098,65.5642 31.3108,65.5662 31.3108,65.5672 C32.0418,68.9492 33.4598,72.3812 35.4188,75.3382 C35.4198,75.3402 35.4198,75.3422 35.4178,75.3432 L17.2988,93.4332 C15.1058,95.6262 15.0788,99.1822 17.3348,101.3752 L17.3348,101.3592 C19.5898,103.5522 23.0798,103.5442 25.2728,101.3512 L43.4718,83.1922 C43.4728,83.1912 43.4748,83.1902 43.4758,83.1912 C45.2538,84.3682 52.4798,87.6682 52.4798,87.6672 C58.9638,54.8212 76.8678,50.7322 88.8498,55.5462" id="Fill-1" fill="#FFFFFF" mask="url(#mask-2)"></path>
        </g>
        <g id="Group-6" transform="translate(58.000000, 39.273000)">
            <mask id="mask-4" fill="white">
                <use xlink:href="#path-3"></use>
            </mask>
            <g id="Clip-5"></g>
            <path d="M137.0452,46.6536 C137.0452,31.9126 127.5042,18.7616 115.7352,18.7616 C112.0892,18.7616 108.6572,19.3096 105.6562,21.3316 C97.6192,9.0426 85.4112,0.8976 71.7372,0.8976 C57.4132,0.8976 44.6962,9.3566 36.6992,22.6666 C33.3152,20.5306 29.4942,19.2446 25.4462,19.2446 C11.6142,19.2446 0.4022,35.6536 0.4022,52.9776 C0.4022,54.5136 0.4942,58.8636 0.6642,59.8636 L135.2202,59.8636 C136.3902,55.8636 137.0452,50.5016 137.0452,46.6536" id="Fill-4" fill="#FFFFFF" mask="url(#mask-4)"></path>
        </g>
    </g>
</svg>