<?xml version="1.0" encoding="UTF-8"?>
<svg width="195px" height="164px" viewBox="0 0 195 164" version="1.1" xmlns="http://www.w3.org/2000/svg" xmlns:xlink="http://www.w3.org/1999/xlink">
    <!-- Generator: Sketch 50 (54983) - http://www.bohemiancoding.com/sketch -->
    <title>Rain</title>
    <desc>Created with Sketch.</desc>
    <defs>
        <polygon id="path-1" points="0 0.68 195 0.68 195 106.0002 0 106.0002"></polygon>
    </defs>
    <g id="Rain" stroke="none" stroke-width="1" fill="none" fill-rule="evenodd">
        <g id="Group-3" transform="translate(0.000000, -0.680000)">
            <mask id="mask-2" fill="white">
                <use xlink:href="#path-1"></use>
            </mask>
            <g id="Clip-2"></g>
            <path d="M195,66.0572 C195,45.0212 181.385,26.2072 164.589,26.2072 C159.386,26.2072 154.488,26.9672 150.206,29.8532 C138.736,12.3152 121.314,0.6792 101.801,0.6792 C81.36,0.6792 63.212,12.7462 51.799,31.7412 C46.969,28.6922 41.517,26.8542 35.74,26.8542 C16.001,26.8542 0,50.3612 0,75.0842 C0,77.2752 0.132,83.0002 0.375,85.0002 L37.5,85.0002 L37.5,99.9692 C37.5,103.3292 40.834,106.0002 44.195,106.0002 L44.16,106.0002 C47.52,106.0002 49.5,103.3292 49.5,99.9692 L49.5,85.0002 L84.5,85.0002 L84.5,94.0822 C84.5,97.4432 87.694,100.0002 91.054,100.0002 L91.012,100.0002 C94.373,100.0002 96.5,97.4432 96.5,94.0822 L96.5,85.0002 L128.5,85.0002 L128.5,99.9692 C128.5,103.3292 132.248,106.0002 135.609,106.0002 L135.694,106.0002 C139.055,106.0002 141.5,103.3292 141.5,99.9692 L141.5,85.0002 L169.5,85.0002 L169.5,94.5272 C169.5,97.8882 172.97,100.0002 176.331,100.0002 L176.423,100.0002 C179.784,100.0002 181.5,97.8882 181.5,94.5272 L181.5,85.0002 L192.395,85.0002 C194.065,79.0002 195,71.5482 195,66.0572" id="Fill-1" fill="#FFFFFF" mask="url(#mask-2)"></path>
        </g>
        <path d="M24.5,103.32 C24.5,100.006 21.814,97.32 18.5,97.32 C15.186,97.32 12.5,100.006 12.5,103.32 L12.5,122.32 C12.5,125.634 15.186,128.32 18.5,128.32 C21.814,128.32 24.5,125.634 24.5,122.32 L24.5,103.32 Z" id="Fill-4" fill="#FFFFFF"></path>
        <path d="M71.5,103.32 C71.5,100.006 68.814,97.32 65.5,97.32 C62.186,97.32 59.5,100.006 59.5,103.32 L59.5,122.32 C59.5,125.634 62.186,128.32 65.5,128.32 C68.814,128.32 71.5,125.634 71.5,122.32 L71.5,103.32 Z" id="Fill-6" fill="#FFFFFF"></path>
        <path d="M118.5,103.32 C118.5,100.006 115.814,97.32 112.5,97.32 C109.186,97.32 106.5,100.006 106.5,103.32 L106.5,122.32 C106.5,125.634 109.186,128.32 112.5,128.32 C115.814,128.32 118.5,125.634 118.5,122.32 L118.5,103.32 Z" id="Fill-8" fill="#FFFFFF"></path>
        <path d="M159.5,103.32 C159.5,100.006 156.814,97.32 153.5,97.32 C150.186,97.32 147.5,100.006 147.5,103.32 L147.5,122.32 C147.5,125.634 150.186,128.32 153.5,128.32 C156.814,128.32 159.5,125.634 159.5,122.32 L159.5,103.32 Z" id="Fill-10" fill="#FFFFFF"></path>
        <path d="M49.5,117.32 C49.5,114.006 46.814,111.32 43.5,111.32 C40.186,111.32 37.5,114.006 37.5,117.32 L37.5,136.32 C37.5,139.634 40.186,142.32 43.5,142.32 C46.814,142.32 49.5,139.634 49.5,136.32 L49.5,117.32 Z" id="Fill-12" fill="#FFFFFF"></path>
        <path d="M179.5,111.32 C179.5,108.006 176.814,105.32 173.5,105.32 C170.186,105.32 167.5,108.006 167.5,111.32 L167.5,130.32 C167.5,133.634 170.186,136.32 173.5,136.32 C176.814,136.32 179.5,133.634 179.5,130.32 L179.5,111.32 Z" id="Fill-14" fill="#FFFFFF"></path>
        <path d="M69.5,139.32 C69.5,136.006 66.814,133.32 63.5,133.32 C60.186,133.32 57.5,136.006 57.5,139.32 L57.5,158.32 C57.5,161.634 60.186,164.32 63.5,164.32 C66.814,164.32 69.5,161.634 69.5,158.32 L69.5,139.32 Z" id="Fill-16" fill="#FFFFFF"></path>
        <path d="M96.5,111.32 C96.5,108.006 93.814,105.32 90.5,105.32 C87.186,105.32 84.5,108.006 84.5,111.32 L84.5,130.32 C84.5,133.634 87.186,136.32 90.5,136.32 C93.814,136.32 96.5,133.634 96.5,130.32 L96.5,111.32 Z" id="Fill-18" fill="#FFFFFF"></path>
        <path d="M159.5,137.32 C159.5,134.006 156.814,131.32 153.5,131.32 C150.186,131.32 147.5,134.006 147.5,137.32 L147.5,156.32 C147.5,159.634 150.186,162.32 153.5,162.32 C156.814,162.32 159.5,159.634 159.5,156.32 L159.5,137.32 Z" id="Fill-20" fill="#FFFFFF"></path>
        <path d="M138.5,117.32 C138.5,114.006 135.814,111.32 132.5,111.32 C129.186,111.32 126.5,114.006 126.5,117.32 L126.5,136.32 C126.5,139.634 129.186,142.32 132.5,142.32 C135.814,142.32 138.5,139.634 138.5,136.32 L138.5,117.32 Z" id="Fill-22" fill="#FFFFFF"></path>
    </g>
</svg>