<?xml version="1.0" encoding="UTF-8"?>
<svg width="195px" height="195px" viewBox="0 0 195 195" version="1.1" xmlns="http://www.w3.org/2000/svg" xmlns:xlink="http://www.w3.org/1999/xlink">
    <!-- Generator: Sketch 50 (54983) - http://www.bohemiancoding.com/sketch -->
    <title>Sunny</title>
    <desc>Created with Sketch.</desc>
    <defs>
        <polygon id="path-1" points="0.0001 0.0002 195 0.0002 195 195 0.0001 195"></polygon>
    </defs>
    <g id="Sunny" stroke="none" stroke-width="1" fill="none" fill-rule="evenodd">
        <mask id="mask-2" fill="white">
            <use xlink:href="#path-1"></use>
        </mask>
        <g id="Clip-2"></g>
        <path d="M185.6721,90.7462 L143.2051,90.7462 C141.9961,84.7462 139.6481,77.9672 136.4061,73.0722 L166.4431,42.3922 C170.0711,38.7642 170.0711,32.5062 166.4431,28.8792 C162.8151,25.2512 156.8791,25.0902 153.2511,28.7182 L122.5511,58.6742 C117.6561,55.4322 111.5001,53.0042 105.5001,51.7952 L105.5001,9.3282 C105.5001,4.1972 102.1301,0.0002 97.0001,0.0002 C91.8701,0.0002 88.5001,4.1972 88.5001,9.3282 L88.5001,51.7952 C82.5001,53.0042 76.8441,55.3522 71.9491,58.5932 L41.8311,28.5572 C38.2031,24.9292 32.2261,24.9292 28.5981,28.5572 C24.9701,32.1852 24.9501,38.1212 28.5781,41.7492 L58.6041,73.0722 C55.3621,77.9672 53.0041,84.7462 51.7951,90.7462 L9.3281,90.7462 C4.1971,90.7462 0.0001,94.1162 0.0001,99.2462 C0.0001,104.3762 4.1971,107.7462 9.3281,107.7462 L51.7951,107.7462 C53.0041,113.7462 55.3521,118.7792 58.5941,123.6742 L27.0281,153.4812 C23.4011,157.1082 23.5001,162.8692 25.5001,166.4962 L25.5001,166.4702 C32.5001,170.0972 36.5921,170.0842 40.2201,166.4562 L71.1851,136.4132 C76.0801,139.6552 82.5001,141.9962 88.5001,143.2052 L88.5001,185.6722 C88.5001,190.8022 91.8701,195.0002 97.0001,195.0002 C102.1301,195.0002 105.5001,190.8022 105.5001,185.6722 L105.5001,143.2052 C111.5001,141.9962 117.6561,139.6482 122.5511,136.4062 L152.9191,166.5942 C156.5471,170.2222 162.8401,170.7462 166.4681,166.7462 L166.4561,166.7462 C170.0831,164.7462 170.0771,157.0302 166.4491,153.4032 L136.4091,123.7492 C139.6511,118.8552 141.9961,113.7462 143.2051,107.7462 L185.6721,107.7462 C190.8021,107.7462 195.0001,104.3762 195.0001,99.2462 C195.0001,94.1162 190.8021,90.7462 185.6721,90.7462" id="Fill-1" fill="#FFFFFF" mask="url(#mask-2)"></path>
    </g>
</svg>