<?xml version="1.0" encoding="UTF-8"?>
<svg width="195px" height="80px" viewBox="0 0 195 80" version="1.1" xmlns="http://www.w3.org/2000/svg" xmlns:xlink="http://www.w3.org/1999/xlink">
    <!-- Generator: Sketch 50 (54983) - http://www.bohemiancoding.com/sketch -->
    <title>Very Cloudy</title>
    <desc>Created with Sketch.</desc>
    <defs></defs>
    <g id="Very-Cloudy" stroke="none" stroke-width="1" fill="none" fill-rule="evenodd">
        <path d="M195,64.0264 C195,52.6674 187.648,42.6144 178.579,42.6144 C175.769,42.6144 173.125,43.0774 170.812,44.6354 C164.619,35.1654 155.212,28.9094 144.676,28.9094 C133.638,28.9094 123.838,35.4374 117.676,45.6944 C115.068,44.0474 112.124,43.0624 109.005,43.0624 C98.346,43.0624 89.706,55.5474 89.706,68.8974 C89.706,70.0804 89.777,73.0444 89.909,74.0444 L193.593,74.0444 C194.495,71.0444 195,66.9914 195,64.0264" id="Fill-1" fill="#FFFFFF"></path>
        <path d="M65.7415,53.4458 C65.7415,53.4438 46.7125,53.3838 46.7125,53.3838 C44.0585,53.3838 40.4265,50.2758 40.3695,46.1038 C40.3285,43.0758 44.0945,39.0438 47.2845,39.0438 L65.2425,39.0438 C65.7415,36.0438 67.6095,34.2088 67.6085,34.2078 C67.6085,34.2078 61.7585,28.6308 61.3775,28.4308 C57.8555,26.5828 54.1985,28.2088 54.1985,28.2088 C51.2805,22.5298 45.2405,17.6408 37.5885,17.6408 C29.5725,17.6408 24.3185,22.6868 20.3545,29.5108 C18.4615,27.8668 16.3225,26.8708 14.0575,26.8708 C6.3175,26.8708 0.0425,39.6698 0.0425,53.0048 C0.0425,54.1868 -0.0525,58.0438 0.0425,59.0438 L68.3705,59.0438 C67.3985,57.0438 66.0485,55.4028 65.7415,53.4458" id="Fill-3" fill="#FFFFFF"></path>
        <path d="M114.0384,41.0965 C113.3784,38.7835 108.8944,34.9505 108.2174,34.0845 C108.2164,34.0835 108.2164,34.0825 108.2174,34.0815 L122.4344,19.8135 C124.1524,18.0965 124.1524,15.2615 122.4344,13.5435 C120.7174,11.8265 117.9074,11.8135 116.1894,13.5315 L102.0204,27.7415 C102.0194,27.7425 102.0184,27.7425 102.0174,27.7425 C99.7014,26.2085 96.9604,25.0915 94.3124,24.5195 C94.3104,24.5195 94.3094,24.5205 94.3094,24.5185 C94.3094,24.4595 94.3094,10.2145 94.3094,4.5985 C94.3094,2.4825 92.9054,0.5325 90.8334,0.0985 C87.9994,-0.4955 85.4784,1.6795 85.4784,4.4155 L85.4784,24.5165 C85.4784,24.5185 85.4774,24.5195 85.4764,24.5195 C82.8284,25.0915 79.9914,26.2025 77.6754,27.7355 C77.6744,27.7365 77.6724,27.7365 77.6714,27.7355 L63.4304,13.5185 C61.7134,11.8015 58.8914,11.8015 57.1734,13.5185 C55.4564,15.2355 55.4504,18.0455 57.1674,19.7635 L71.3824,34.0815 C71.3834,34.0825 71.3834,34.0845 71.3824,34.0855 C69.8484,36.4015 68.7354,39.2915 68.1624,41.9395 C68.1624,41.9415 68.1614,41.9425 68.1604,41.9425 L48.2454,41.9425 C46.1284,41.9425 44.1764,43.3465 43.7414,45.4185 C43.1474,48.2525 45.3234,50.7735 48.0594,50.7735 L68.1604,50.7735 C68.1614,50.7735 68.1624,50.7745 68.1624,50.7755 C68.7354,53.4235 69.8454,56.1115 71.3794,58.4275 C71.3804,58.4285 71.3794,58.4295 71.3794,58.4305 L57.1904,72.5975 C55.4724,74.3145 55.4514,77.0995 57.2184,78.8165 L57.2184,78.8035 C58.9844,80.5215 61.7174,80.5145 63.4344,78.7975 L77.6854,64.5775 C77.6864,64.5765 77.6884,64.5765 77.6894,64.5765 C79.0804,65.4985 85.7414,68.6175 85.7414,68.6165 C89.1704,42.7875 103.1134,36.6155 114.0384,41.0965" id="Fill-5" fill="#FFFFFF"></path>
    </g>
</svg>