<?xml version="1.0" encoding="UTF-8"?>
<svg width="195px" height="155px" viewBox="0 0 195 155" version="1.1" xmlns="http://www.w3.org/2000/svg" xmlns:xlink="http://www.w3.org/1999/xlink">
    <!-- Generator: Sketch 50 (54983) - http://www.bohemiancoding.com/sketch -->
    <title>Windy</title>
    <desc>Created with Sketch.</desc>
    <defs>
        <polygon id="path-1" points="0.0088 0.830336394 156 0.830336394 156 64.0472 0.0088 64.0472"></polygon>
        <polygon id="path-3" points="0 0.7832 155.991236 0.7832 155.991236 64 0 64"></polygon>
    </defs>
    <g id="Windy" stroke="none" stroke-width="1" fill="none" fill-rule="evenodd">
        <g id="Group-3" transform="translate(39.000000, 21.360000)">
            <mask id="mask-2" fill="white">
                <use xlink:href="#path-1"></use>
            </mask>
            <g id="Clip-2"></g>
            <path d="M0.0088,59.4832 C0.0088,62.0042 2.0518,64.0472 4.5728,64.0472 L122.8058,64.0472 C138.1788,64.0472 153.4048,58.8742 155.7668,34.7872 C158.2968,8.9752 139.6528,1.4072 128.4778,0.8772 C113.7908,0.1812 99.9108,7.2042 99.9108,24.1902 C99.9108,36.7342 108.1968,40.9742 116.2948,41.3672 C133.9088,42.2212 130.2248,31.8722 125.0828,32.1422 C119.2948,32.4472 107.8118,34.1542 109.0458,21.6282 C110.2468,9.4312 125.0998,9.1402 132.4848,11.2842 C141.3108,13.8462 147.4788,25.7402 144.4418,37.3812 C141.4058,49.0222 130.5868,53.5132 121.7618,53.5132 L4.3248,53.5132 C1.9408,53.5132 0.0088,55.4462 0.0088,57.8302 L0.0088,59.4832 Z" id="Fill-1" fill="#FFFFFF" mask="url(#mask-2)"></path>
        </g>
        <path d="M9.25,57.8262 C9.25,60.8032 11.663,63.2172 14.641,63.2172 L100.472,63.2172 C115.846,63.2172 131.072,58.0432 133.433,33.9572 C135.964,8.1452 117.319,0.5762 106.144,0.0472 C91.457,-0.6488 77.578,6.3732 77.578,23.3602 C77.578,35.9032 85.863,40.1432 93.962,40.5362 C111.575,41.3902 107.892,31.0422 102.75,31.3122 C96.961,31.6172 85.479,33.3242 86.712,20.7982 C87.913,8.6012 102.766,8.3102 110.152,10.4542 C118.977,13.0162 125.146,24.9102 122.109,36.5512 C119.072,48.1912 108.254,52.6832 99.429,52.6832 L14.393,52.6832 C11.553,52.6832 9.25,54.9862 9.25,57.8262 Z" id="Fill-4" fill="#FFFFFF"></path>
        <g id="Group-8" transform="translate(0.000000, 91.360000)">
            <mask id="mask-4" fill="white">
                <use xlink:href="#path-3"></use>
            </mask>
            <g id="Clip-7"></g>
            <path d="M0,5.3472 C0,2.8262 2.043,0.7832 4.564,0.7832 L122.797,0.7832 C138.17,0.7832 153.396,5.9562 155.758,30.0432 C158.288,55.8552 139.644,63.4232 128.469,63.9532 C113.782,64.6492 99.902,57.6262 99.902,40.6402 C99.902,28.0962 108.188,23.8562 116.286,23.4632 C133.9,22.6092 130.216,32.9582 125.074,32.6882 C119.286,32.3832 107.803,30.6762 109.037,43.2022 C110.238,55.3992 125.091,55.6902 132.476,53.5462 C141.302,50.9842 147.47,39.0902 144.433,27.4492 C141.397,15.8082 130.578,11.3172 121.753,11.3172 L4.316,11.3172 C1.932,11.3172 0,9.3842 0,7.0002 L0,5.3472 Z" id="Fill-6" fill="#FFFFFF" mask="url(#mask-4)"></path>
        </g>
    </g>
</svg>